<?xml version="1.0" encoding="UTF-8" standalone="no"?>
<!DOCTYPE svg PUBLIC "-//W3C//DTD SVG 1.1//EN" "http://www.w3.org/Graphics/SVG/1.1/DTD/svg11.dtd">
<svg width="100%" height="100%" viewBox="0 0 1001 1001" version="1.1" xmlns="http://www.w3.org/2000/svg" xmlns:xlink="http://www.w3.org/1999/xlink" xml:space="preserve" xmlns:serif="http://www.serif.com/" style="fill-rule:evenodd;clip-rule:evenodd;stroke-linejoin:round;stroke-miterlimit:2;">
    <g transform="matrix(1,0,0,1,-4464,-3462)">
        <g id="main" transform="matrix(1,0,0,1,4464.97,3462.12)">
            <rect x="0" y="0" width="1000" height="1000" style="fill:rgb(35,35,35);fill-opacity:0;"/>
            <g id="Rocket" transform="matrix(0.707107,0.707107,-0.707107,0.707107,394.023,-247.956)">
                <g id="Cone" transform="matrix(2.09861,-4.44089e-16,0,1.6103,-553.059,-410.558)">
                    <path d="M604.041,629.765C589.274,663.739 562.3,686.501 531.5,686.501C500.859,686.501 474.005,663.973 459.189,630.289L459.189,484.481C459.188,469.664 460.689,454.911 463.652,440.606C484.019,342.084 516.999,283.821 527.886,266.494C528.79,265.119 530.11,264.328 531.5,264.328C532.889,264.328 534.209,265.119 535.114,266.494C545.582,283.156 576.483,337.674 596.917,429.459C601.629,450.462 604.021,472.234 604.021,494.117C604.041,541.086 604.041,629.765 604.041,629.765ZM526.141,421.712L540.448,403.066C541.611,401.551 541.611,399.092 540.448,397.577C539.286,396.062 537.399,396.062 536.236,397.577L522.109,415.989L522.099,381.034C524.228,379.637 525.69,376.763 525.69,373.448C525.69,369.639 523.76,366.413 521.107,365.34L521.107,345.208L531.492,331.674L545.807,350.33C545.531,351.207 545.379,352.167 545.379,353.173C545.379,356.134 546.697,358.697 548.61,359.917L548.61,420.211C546.316,421.199 544.658,424.018 544.658,427.338C544.658,431.48 547.238,434.843 550.416,434.843C551.28,434.843 552.099,434.594 552.835,434.15L567.503,453.267C567.163,454.224 566.973,455.291 566.973,456.415C566.973,460.557 569.553,463.919 572.731,463.919C575.909,463.919 578.489,460.557 578.489,456.415C578.489,452.273 575.909,448.91 572.731,448.91C571.866,448.91 571.046,449.159 570.31,449.605L555.642,430.49C555.984,429.532 556.174,428.464 556.174,427.338C556.174,424.194 554.688,421.5 552.581,420.383L552.581,360.439C555.061,359.603 556.895,356.665 556.895,353.173C556.895,349.031 554.315,345.669 551.137,345.669C550.183,345.669 549.283,345.972 548.49,346.508L533.273,326.676L533.273,289.482C535.474,288.427 537.045,285.669 537.045,282.437C537.045,278.295 534.465,274.932 531.287,274.932C528.109,274.932 525.529,278.295 525.529,282.437C525.529,285.669 527.101,288.427 529.302,289.482L529.302,327.209L518.058,341.863C517.504,342.322 517.136,343.129 517.136,344.048L517.136,365.387C516.072,365.845 515.129,366.65 514.387,367.701L505.479,364.59C504.451,364.231 503.354,364.614 502.602,365.595L496.037,374.15C495.411,373.889 494.744,373.747 494.052,373.747C490.46,373.747 487.545,377.547 487.545,382.227C487.545,386.357 489.815,389.801 492.816,390.554L495.143,401.873C495.569,403.942 497.203,405.171 498.791,404.617C500.378,404.063 501.322,401.933 500.897,399.863L498.534,388.371C499.78,386.826 500.558,384.644 500.558,382.227C500.558,381.325 500.45,380.455 500.249,379.639L505.598,372.668L512.802,375.184C513.202,377.691 514.453,379.794 516.143,380.958L516.153,417.402C514.503,418.942 513.427,421.461 513.427,424.306C513.427,428.99 516.345,432.793 519.939,432.793C523.533,432.793 526.451,428.99 526.451,424.306C526.451,423.401 526.342,422.53 526.141,421.712ZM531.287,280.107C532.274,280.107 533.075,281.151 533.075,282.437C533.075,283.722 532.274,284.766 531.287,284.766C530.301,284.766 529.5,283.722 529.5,282.437C529.5,281.151 530.301,280.107 531.287,280.107ZM550.416,425.009C551.402,425.009 552.203,426.053 552.203,427.338C552.203,428.624 551.402,429.668 550.416,429.668C549.429,429.668 548.629,428.624 548.629,427.338C548.629,426.053 549.429,425.009 550.416,425.009ZM551.137,350.844C552.123,350.844 552.924,351.887 552.924,353.173C552.924,354.459 552.123,355.502 551.137,355.502C550.15,355.502 549.349,354.459 549.349,353.173C549.349,351.887 550.15,350.844 551.137,350.844ZM494.052,378.923C495.451,378.923 496.587,380.403 496.587,382.227C496.587,384.051 495.451,385.531 494.052,385.531C492.652,385.531 491.516,384.051 491.516,382.227C491.516,380.403 492.652,378.923 494.052,378.923ZM572.731,454.085C573.718,454.085 574.519,455.129 574.519,456.415C574.519,457.7 573.718,458.744 572.731,458.744C571.745,458.744 570.944,457.7 570.944,456.415C570.944,455.129 571.745,454.085 572.731,454.085ZM519.177,370.136C520.58,370.136 521.719,371.62 521.719,373.448C521.719,375.276 520.58,376.76 519.177,376.76C517.775,376.76 516.636,375.276 516.636,373.448C516.636,371.62 517.775,370.136 519.177,370.136ZM519.939,420.994C521.341,420.994 522.48,422.478 522.48,424.306C522.48,426.134 521.341,427.618 519.939,427.618C518.536,427.618 517.397,426.134 517.397,424.306C517.397,422.478 518.536,420.994 519.939,420.994ZM486.161,530.444C487.709,530.184 489.221,529.484 490.578,528.343L518.619,538.135C520.332,538.733 522.159,538.095 523.413,536.461L547.551,505.004L570.525,513.026C570.79,516.043 571.809,518.968 573.583,521.279C575.314,523.534 577.492,524.854 579.747,525.238L585.848,554.915L567.797,578.441C567.402,578.281 567.002,578.152 566.599,578.053L566.599,558.59C568.8,557.535 570.371,554.777 570.371,551.544C570.371,547.402 567.791,544.04 564.613,544.04C561.435,544.04 558.855,547.402 558.855,551.544C558.855,554.777 560.427,557.535 562.628,558.59L562.628,578.053C560.716,578.521 558.884,579.672 557.362,581.505L530.765,572.217C528.119,571.293 525.395,573.342 524.686,576.791C523.977,580.24 525.549,583.79 528.196,584.714L554.037,593.738C554.263,595.773 554.833,597.755 555.749,599.524L542.982,616.162C542.609,616.648 542.4,617.306 542.4,617.992L542.4,656.837C540.199,657.892 538.627,660.65 538.627,663.883C538.627,668.024 541.208,671.387 544.386,671.387C547.564,671.387 550.144,668.024 550.144,663.883C550.144,660.65 548.572,657.892 546.371,656.837L546.371,619.064L558.541,603.203C562.705,606.955 568.465,606.416 572.17,601.587C575.075,597.802 575.957,592.372 574.816,587.589L594.894,561.422C596.148,559.788 596.638,557.406 596.179,555.174L589.097,520.73C592.864,515.264 592.731,506.837 588.698,501.581C584.71,496.384 578.343,496.156 574.146,500.897L547.352,491.541C545.639,490.942 543.812,491.581 542.558,493.215L518.42,524.672L495.474,516.659C495.48,513.085 494.437,509.508 492.346,506.783C490.539,504.428 488.244,503.094 485.883,502.779L480.123,474.761L498.149,451.268C498.402,451.37 498.657,451.46 498.914,451.538L498.914,470.357C496.713,471.412 495.141,474.17 495.141,477.403C495.141,481.545 497.722,484.907 500.9,484.907C504.078,484.907 506.658,481.545 506.658,477.403C506.658,474.17 505.086,471.412 502.885,470.357L502.885,451.75C504.963,451.355 506.969,450.162 508.61,448.171L535.206,457.459C537.852,458.383 540.576,456.333 541.285,452.885C541.994,449.436 540.422,445.886 537.775,444.962L511.903,435.927C511.58,433.07 510.576,430.319 508.89,428.122C504.719,422.686 497.946,422.686 493.775,428.122C490.871,431.907 489.989,437.336 491.129,442.12L471.077,468.253C469.823,469.888 469.333,472.269 469.792,474.502L476.61,507.665C473.072,513.135 473.279,521.33 477.232,526.481C478.651,528.332 480.373,529.552 482.19,530.143L482.19,577.169L482.19,577.173L482.232,620.735C480.126,621.851 478.64,624.546 478.64,627.69C478.64,631.831 481.22,635.194 484.398,635.194C487.576,635.194 490.156,631.831 490.156,627.69C490.156,624.369 488.498,621.55 486.203,620.562L486.167,583.424L502.132,604.231C501.819,605.156 501.645,606.179 501.645,607.255C501.645,611.396 504.225,614.759 507.403,614.759C510.581,614.759 513.161,611.396 513.161,607.255C513.161,603.113 510.581,599.75 507.403,599.75C506.502,599.75 505.648,600.021 504.888,600.503L486.161,576.098L486.161,530.444ZM481.443,512.272C483.29,509.866 486.288,509.866 488.134,512.272C489.981,514.679 489.981,518.586 488.134,520.993C486.288,523.399 483.29,523.399 481.443,520.993C479.597,518.586 479.597,514.679 481.443,512.272ZM507.403,604.925C508.39,604.925 509.191,605.969 509.191,607.255C509.191,608.54 508.39,609.584 507.403,609.584C506.417,609.584 505.616,608.54 505.616,607.255C505.616,605.969 506.417,604.925 507.403,604.925ZM564.613,549.215C565.6,549.215 566.4,550.258 566.4,551.544C566.4,552.83 565.6,553.873 564.613,553.873C563.627,553.873 562.826,552.83 562.826,551.544C562.826,550.258 563.627,549.215 564.613,549.215ZM577.795,507.07C579.641,504.664 582.639,504.664 584.486,507.07C586.332,509.476 586.332,513.384 584.486,515.79C582.639,518.197 579.641,518.197 577.795,515.79C575.948,513.384 575.948,509.476 577.795,507.07ZM497.987,433.611C499.834,431.204 502.832,431.204 504.678,433.611C506.525,436.017 506.525,439.924 504.678,442.331C502.832,444.737 499.834,444.737 497.987,442.331C496.141,439.924 496.141,436.017 497.987,433.611ZM544.386,661.553C545.372,661.553 546.173,662.597 546.173,663.883C546.173,665.168 545.372,666.212 544.386,666.212C543.399,666.212 542.598,665.168 542.598,663.883C542.598,662.597 543.399,661.553 544.386,661.553ZM561.268,587.378C563.114,584.971 566.112,584.971 567.959,587.378C569.805,589.784 569.805,593.692 567.959,596.098C566.112,598.504 563.114,598.504 561.268,596.098C559.421,593.692 559.421,589.784 561.268,587.378ZM484.398,625.36C485.384,625.36 486.185,626.404 486.185,627.69C486.185,628.975 485.384,630.019 484.398,630.019C483.411,630.019 482.61,628.975 482.61,627.69C482.61,626.404 483.411,625.36 484.398,625.36ZM500.9,479.732C499.913,479.732 499.112,478.689 499.112,477.403C499.112,476.117 499.913,475.074 500.9,475.074C501.886,475.074 502.687,476.117 502.687,477.403C502.687,478.689 501.886,479.732 500.9,479.732Z" style="fill:white;"/>
                </g>
                <g id="Engine" transform="matrix(1,5.55112e-17,1.11022e-16,-1.05128,61.2675,1551.43)">
                    <path d="M425.436,820.933C448.386,810.016 474.031,803.909 501.083,803.909C528.135,803.909 553.78,810.016 576.73,820.933C576.73,820.933 555.064,781.995 545.97,765.652C543.544,761.291 538.783,758.564 533.597,758.564C517.882,758.564 484.284,758.564 468.569,758.564C463.383,758.564 458.622,761.291 456.196,765.652C447.102,781.995 425.436,820.933 425.436,820.933Z" style="fill:white;"/>
                </g>
                <g id="FlapL" transform="matrix(4.44089e-16,-2.42259,1.12578,1.11022e-16,-211.939,1103.12)">
                    <path d="M295.364,543.673L205.049,543.673C205.049,543.673 192.447,507.226 183.426,481.135C181.727,476.22 181.461,469.664 182.738,464.19C184.016,458.717 186.619,455.262 189.466,455.262C204.296,455.262 226.45,455.262 238.33,455.262C243.643,455.262 248.787,459.3 252.852,466.665C266.04,490.555 295.364,543.673 295.364,543.673Z" style="fill:white;"/>
                </g>
                <g id="FlapR" transform="matrix(0,-2.42259,-1.12578,-1.11022e-16,1336.64,1103.12)">
                    <path d="M295.364,543.673L205.049,543.673C205.049,543.673 192.447,507.226 183.426,481.135C181.727,476.22 181.461,469.664 182.738,464.19C184.016,458.717 186.619,455.262 189.466,455.262C204.296,455.262 226.45,455.262 238.33,455.262C243.643,455.262 248.787,459.3 252.852,466.665C266.04,490.555 295.364,543.673 295.364,543.673Z" style="fill:white;"/>
                </g>
            </g>
        </g>
    </g>
</svg>
