<?xml version="1.0" encoding="UTF-8" standalone="no"?>
<!DOCTYPE svg PUBLIC "-//W3C//DTD SVG 1.1//EN" "http://www.w3.org/Graphics/SVG/1.1/DTD/svg11.dtd">
<svg width="100%" height="100%" viewBox="0 0 4167 4167" version="1.1" xmlns="http://www.w3.org/2000/svg" xmlns:xlink="http://www.w3.org/1999/xlink" xml:space="preserve" xmlns:serif="http://www.serif.com/" style="fill-rule:evenodd;clip-rule:evenodd;stroke-linecap:square;stroke-linejoin:bevel;stroke-miterlimit:1.5;">
    <g transform="matrix(1,0,0,1,-8930.74568,-10668.39414)">
        <g id="main" transform="matrix(4.166667,0,0,4.166667,8930.74568,10668.39414)">
            <rect x="0" y="0" width="1000" height="1000" style="fill:rgb(34,34,34);fill-opacity:0;"/>
            <g id="Star" transform="matrix(1.484472,0,0,1.484472,-142.581811,-242.157678)">
                <g transform="matrix(0,-0.860762,-0.860762,0,374.887859,499.70195)">
                    <path d="M126.285,125C126.285,124.925 126.285,124.514 125.908,124.145C125.79,124.029 125.65,123.933 125.499,123.867C125.343,123.798 125.171,123.77 125.002,123.744C124.99,123.742 111.678,122.978 111.369,122.962C100.333,122.372 89.296,121.788 78.257,121.241C71.519,120.908 64.781,120.606 58.041,120.323C51.139,120.032 44.236,119.755 37.331,119.521C20.134,118.939 10.835,118.824 8.53,118.795C5.775,118.761 3.019,118.742 0.263,118.739C-2.396,118.736 -13.547,118.724 -32.969,119.286C-38.758,119.454 -44.547,119.66 -50.334,119.883C-56.072,120.103 -61.809,120.339 -67.544,120.616C-96.04,121.992 -96.037,122.053 -124.518,123.715C-124.678,123.724 -124.839,123.734 -125,123.744C-125.078,123.748 -125.518,123.775 -125.887,124.144C-125.964,124.22 -126.474,124.731 -126.157,125.465C-125.96,125.921 -125.557,126.103 -125.488,126.134C-125.336,126.203 -125.167,126.231 -125.002,126.256C-124.996,126.257 -99.69,127.733 -99.531,127.742C-88.871,128.322 -78.208,128.869 -67.544,129.384C-61.809,129.661 -56.072,129.897 -50.334,130.117C-44.547,130.34 -38.758,130.546 -32.969,130.714C-13.547,131.276 -2.396,131.264 0.263,131.261C1.649,131.259 9.464,131.25 17.586,131.046C24.168,130.88 30.751,130.702 37.331,130.479C44.236,130.245 51.139,129.968 58.041,129.677C64.781,129.394 71.519,129.092 78.257,128.759C107.427,127.315 121.262,126.482 125,126.256C125.53,126.224 125.851,125.911 125.908,125.855C126.285,125.486 126.285,125.075 126.285,125Z" style="fill:white;"/>
                </g>
                <g transform="matrix(0.860762,0,0,0.860762,159.697251,499.70195)">
                    <path d="M181.308,0C181.308,0.07 181.308,0.416 180.924,0.791C180.801,0.911 180.66,1.013 180.508,1.093C180.459,1.119 180.238,1.236 179.85,1.308C172.373,2.705 172.37,2.69 164.842,3.769C162.401,4.119 159.951,4.414 157.5,4.684C154.772,4.985 152.041,5.262 149.305,5.482C142.097,6.061 137.099,6.18 136.036,6.205C134.523,6.241 133.009,6.258 131.495,6.261C129.478,6.264 127.462,6.246 125.446,6.223C123.654,6.203 116.563,6.122 103.05,5.716C97.241,5.541 91.433,5.336 85.626,5.122C79.478,4.895 73.331,4.656 67.184,4.392C54.989,3.868 42.794,3.322 30.6,2.757L0,1.277C-0.079,1.273 -0.527,1.251 -0.902,0.876C-1.016,0.762 -1.113,0.625 -1.177,0.477C-1.381,0 -1.207,-0.406 -1.177,-0.477C-0.976,-0.943 -0.566,-1.126 -0.496,-1.157C-0.341,-1.226 -0.17,-1.253 -0.002,-1.277C0.002,-1.278 30.436,-2.749 30.6,-2.757C42.794,-3.322 54.989,-3.868 67.184,-4.392C73.331,-4.656 79.478,-4.895 85.626,-5.122C91.433,-5.336 97.241,-5.541 103.05,-5.716C116.563,-6.122 123.654,-6.203 125.446,-6.223C127.462,-6.246 129.478,-6.264 131.495,-6.261C132.219,-6.26 136.778,-6.252 140.542,-6.047C143.465,-5.888 146.388,-5.717 149.305,-5.482C152.041,-5.262 154.772,-4.985 157.5,-4.684C159.951,-4.414 162.401,-4.119 164.842,-3.769C166.059,-3.595 174.87,-2.332 180,-1.277C180.54,-1.166 180.864,-0.85 180.924,-0.791C181.308,-0.416 181.308,-0.07 181.308,0Z" style="fill:white;"/>
                </g>
                <g transform="matrix(0.608651,-0.608651,-0.608651,-0.608651,254.381205,559.955389)">
                    <path d="M95.199,38.891C95.199,38.7 95.186,38.7 95.096,38.531C95.024,38.397 94.936,38.263 94.815,38.17C94.208,37.708 93.889,37.61 93.799,37.583C89.257,36.194 89.252,36.207 84.628,35.122C83.142,34.773 81.643,34.478 80.141,34.207C78.478,33.907 76.809,33.629 75.133,33.409C70.728,32.83 67.675,32.711 67.024,32.686C66.1,32.65 65.174,32.633 64.249,32.63C63.017,32.627 61.784,32.645 60.552,32.668C59.457,32.688 55.124,32.769 46.866,33.175C43.315,33.35 39.766,33.555 36.218,33.769C32.46,33.996 28.703,34.235 24.948,34.499C4.57,35.932 4.574,35.977 -15.791,37.588L-16.109,37.614C-16.188,37.62 -16.636,37.656 -17.011,38.031C-17.088,38.108 -17.605,38.625 -17.286,39.355C-17.085,39.813 -16.675,40.003 -16.605,40.036C-16.45,40.107 -16.278,40.136 -16.111,40.168C-16.108,40.169 2.49,41.64 2.591,41.648C10.042,42.213 17.494,42.759 24.948,43.283C28.703,43.547 32.46,43.786 36.218,44.013C39.766,44.227 43.315,44.432 46.866,44.607C55.124,45.013 59.457,45.094 60.552,45.114C61.784,45.137 63.017,45.155 64.249,45.152C64.692,45.151 67.477,45.143 69.778,44.938C71.566,44.778 73.354,44.607 75.133,44.373C76.809,44.153 78.478,43.875 80.141,43.575C81.643,43.304 83.142,43.009 84.628,42.66C85.375,42.485 90.756,41.223 93.891,40.168C93.973,40.141 94.237,40.052 94.815,39.612C94.936,39.519 95.024,39.385 95.096,39.251C95.186,39.082 95.199,39.082 95.199,38.891Z" style="fill:white;"/>
                </g>
                <g transform="matrix(0.608651,0.608651,0.608651,-0.608651,254.381205,439.448511)">
                    <path d="M95.199,-38.891C95.199,-39.082 95.186,-39.082 95.096,-39.251C95.024,-39.385 94.936,-39.519 94.815,-39.612C94.208,-40.074 93.889,-40.172 93.799,-40.199C89.257,-41.588 89.252,-41.575 84.628,-42.66C83.142,-43.009 81.643,-43.304 80.141,-43.575C78.478,-43.875 76.809,-44.153 75.133,-44.373C70.728,-44.952 67.675,-45.071 67.024,-45.096C66.1,-45.132 65.174,-45.149 64.249,-45.152C63.017,-45.155 61.784,-45.137 60.552,-45.114C59.457,-45.094 55.124,-45.013 46.866,-44.607C43.315,-44.432 39.766,-44.227 36.218,-44.013C32.46,-43.786 28.703,-43.547 24.948,-43.283C4.57,-41.85 4.574,-41.805 -15.791,-40.194L-16.109,-40.168C-16.188,-40.162 -16.636,-40.126 -17.011,-39.751C-17.088,-39.674 -17.605,-39.157 -17.286,-38.427C-17.085,-37.969 -16.675,-37.779 -16.605,-37.746C-16.45,-37.675 -16.278,-37.646 -16.111,-37.614C-16.108,-37.613 2.49,-36.142 2.591,-36.134C10.042,-35.569 17.494,-35.023 24.948,-34.499C28.703,-34.235 32.46,-33.996 36.218,-33.769C39.766,-33.555 43.315,-33.35 46.866,-33.175C55.124,-32.769 59.457,-32.688 60.552,-32.668C61.784,-32.645 63.017,-32.627 64.249,-32.63C64.692,-32.631 67.477,-32.639 69.778,-32.844C71.566,-33.004 73.354,-33.175 75.133,-33.409C76.809,-33.629 78.478,-33.907 80.141,-34.207C81.643,-34.478 83.142,-34.773 84.628,-35.122C85.375,-35.297 90.756,-36.559 93.891,-37.614C93.973,-37.641 94.237,-37.73 94.815,-38.17C94.936,-38.263 95.024,-38.397 95.096,-38.531C95.186,-38.7 95.199,-38.7 95.199,-38.891Z" style="fill:white;"/>
                </g>
                <g transform="matrix(0.795242,-0.329397,-0.329397,-0.795242,232.195163,523.153195)">
                    <path d="M49.405,9.565C48.727,8.909 48.838,8.785 48.055,8.259C46.044,6.906 46.04,6.909 43.886,5.798C43.224,5.456 42.54,5.158 41.847,4.883C41.1,4.586 40.343,4.308 39.571,4.085C37.568,3.506 36.184,3.388 35.885,3.362C35.465,3.326 35.044,3.309 34.623,3.306C34.063,3.303 33.503,3.321 32.943,3.344C32.444,3.364 30.476,3.445 26.722,3.851C25.106,4.026 23.493,4.231 21.882,4.445C20.172,4.672 18.464,4.911 16.759,5.175C7.482,6.611 7.49,6.654 -1.758,8.264C-2.091,8.322 -2.099,8.304 -2.399,8.46C-2.467,8.496 -2.879,8.71 -3.079,9.141C-3.081,9.144 -3.181,9.567 -3.18,9.569C-3.076,10.014 -3.128,10.053 -2.805,10.376C-2.686,10.495 -2.548,10.596 -2.399,10.674C-2.099,10.83 -2.091,10.812 -1.758,10.87C7.49,12.48 7.482,12.523 16.759,13.959C18.464,14.223 20.172,14.462 21.882,14.689C23.493,14.903 25.106,15.108 26.722,15.283C30.476,15.689 32.444,15.77 32.943,15.79C33.503,15.813 34.063,15.831 34.623,15.828C34.825,15.827 36.091,15.819 37.136,15.614C37.954,15.453 38.771,15.281 39.571,15.049C40.343,14.826 41.1,14.548 41.847,14.251C42.54,13.976 43.224,13.678 43.886,13.336C46.04,12.225 46.044,12.228 48.055,10.875C48.18,10.791 48.162,10.771 49.405,9.565Z" style="fill:white;"/>
                </g>
                <g transform="matrix(0.329397,-0.795242,-0.795242,-0.329397,274.273831,534.799138)">
                    <path d="M35.875,23.099C35.197,22.441 35.309,22.316 34.525,21.789C32.514,20.436 32.51,20.439 30.356,19.328C29.694,18.986 29.01,18.688 28.317,18.413C27.57,18.116 26.813,17.838 26.041,17.615C24.038,17.036 22.654,16.918 22.355,16.892C21.935,16.856 21.514,16.839 21.093,16.836C20.533,16.833 19.973,16.851 19.413,16.874C18.914,16.894 16.946,16.975 13.192,17.381C11.576,17.556 9.963,17.761 8.352,17.975C6.642,18.202 4.934,18.441 3.229,18.705C-6.048,20.141 -6.04,20.184 -15.288,21.794C-15.621,21.852 -15.629,21.834 -15.929,21.99C-15.997,22.026 -16.409,22.24 -16.609,22.671C-16.611,22.674 -16.711,23.097 -16.71,23.099C-16.606,23.544 -16.658,23.583 -16.335,23.906C-16.216,24.025 -16.078,24.126 -15.929,24.204C-15.629,24.36 -15.621,24.342 -15.288,24.4C-6.04,26.01 -6.048,26.053 3.229,27.489C4.934,27.753 6.642,27.992 8.352,28.219C9.963,28.433 11.576,28.638 13.192,28.813C16.946,29.219 18.914,29.3 19.413,29.32C19.973,29.343 20.533,29.361 21.093,29.358C21.295,29.357 22.561,29.349 23.606,29.144C24.424,28.983 25.241,28.811 26.041,28.579C26.813,28.356 27.57,28.078 28.317,27.781C29.01,27.506 29.694,27.208 30.356,26.866C32.51,25.755 32.514,25.758 34.525,24.405C34.65,24.321 34.632,24.302 35.875,23.099Z" style="fill:white;"/>
                </g>
                <g transform="matrix(0.329397,0.795242,0.795242,-0.329397,274.273831,464.604761)">
                    <path d="M35.875,-23.099C35.197,-23.755 35.308,-23.879 34.525,-24.405C32.514,-25.758 32.51,-25.755 30.356,-26.866C29.694,-27.208 29.01,-27.506 28.317,-27.781C27.57,-28.078 26.813,-28.356 26.041,-28.579C24.038,-29.158 22.654,-29.276 22.355,-29.302C21.935,-29.338 21.514,-29.355 21.093,-29.358C20.533,-29.361 19.973,-29.343 19.413,-29.32C18.914,-29.3 16.946,-29.219 13.192,-28.813C11.576,-28.638 9.963,-28.433 8.352,-28.219C6.642,-27.992 4.934,-27.753 3.229,-27.489C-6.048,-26.053 -6.04,-26.01 -15.288,-24.4C-15.621,-24.342 -15.629,-24.36 -15.929,-24.204C-15.997,-24.168 -16.409,-23.954 -16.609,-23.523C-16.611,-23.52 -16.711,-23.097 -16.71,-23.095C-16.606,-22.65 -16.658,-22.611 -16.335,-22.288C-16.216,-22.169 -16.078,-22.068 -15.929,-21.99C-15.629,-21.834 -15.621,-21.852 -15.288,-21.794C-6.04,-20.184 -6.048,-20.141 3.229,-18.705C4.934,-18.441 6.642,-18.202 8.352,-17.975C9.963,-17.761 11.576,-17.556 13.192,-17.381C16.946,-16.975 18.914,-16.894 19.413,-16.874C19.973,-16.851 20.533,-16.833 21.093,-16.836C21.295,-16.837 22.561,-16.845 23.606,-17.05C24.424,-17.211 25.241,-17.383 26.041,-17.615C26.813,-17.838 27.57,-18.116 28.317,-18.413C29.01,-18.688 29.694,-18.986 30.356,-19.328C32.51,-20.439 32.514,-20.436 34.525,-21.789C34.65,-21.873 34.632,-21.893 35.875,-23.099Z" style="fill:white;"/>
                </g>
                <g transform="matrix(0.795242,0.329397,0.329397,-0.795242,232.195163,476.250705)">
                    <path d="M49.405,-9.565C48.727,-10.223 48.839,-10.348 48.055,-10.875C46.044,-12.228 46.04,-12.225 43.886,-13.336C43.224,-13.678 42.54,-13.976 41.847,-14.251C41.1,-14.548 40.343,-14.826 39.571,-15.049C37.568,-15.628 36.184,-15.746 35.885,-15.772C35.465,-15.808 35.044,-15.825 34.623,-15.828C34.063,-15.831 33.503,-15.813 32.943,-15.79C32.444,-15.77 30.476,-15.689 26.722,-15.283C25.106,-15.108 23.493,-14.903 21.882,-14.689C20.172,-14.462 18.464,-14.223 16.759,-13.959C7.482,-12.523 7.49,-12.48 -1.758,-10.87C-2.091,-10.812 -2.099,-10.83 -2.399,-10.674C-2.467,-10.638 -2.879,-10.424 -3.079,-9.993C-3.081,-9.99 -3.181,-9.567 -3.18,-9.565C-3.076,-9.12 -3.128,-9.081 -2.805,-8.758C-2.686,-8.639 -2.548,-8.538 -2.399,-8.46C-2.099,-8.304 -2.091,-8.322 -1.758,-8.264C7.49,-6.654 7.482,-6.611 16.759,-5.175C18.464,-4.911 20.172,-4.672 21.882,-4.445C23.493,-4.231 25.106,-4.026 26.722,-3.851C30.476,-3.445 32.444,-3.364 32.943,-3.344C33.503,-3.321 34.063,-3.303 34.623,-3.306C34.825,-3.307 36.091,-3.315 37.136,-3.52C37.954,-3.681 38.771,-3.853 39.571,-4.085C40.343,-4.308 41.1,-4.586 41.847,-4.883C42.54,-5.158 43.224,-5.456 43.886,-5.798C46.04,-6.909 46.044,-6.906 48.055,-8.259C48.18,-8.343 48.162,-8.362 49.405,-9.565Z" style="fill:white;"/>
                </g>
            </g>
            <g id="ExpandedPlanet" transform="matrix(0.248047,0,0,0.248047,-979.173266,-56.384669)">
                <path d="M5760.689,3264.971C5434.004,3200.407 5162.02,2982.868 5022.601,2690.216C5025.425,2654.434 5027.871,2618.622 5030.172,2582.803C5032.679,2543.785 5034.999,2504.753 5036.891,2465.7C5038.253,2437.571 5039.356,2409.431 5040.357,2381.286C5046.625,2384.483 5052.969,2387.532 5059.415,2390.347C5074.453,2396.915 5089.753,2402.88 5105.088,2408.72C5110.876,2410.925 5116.864,2412.563 5122.756,2414.471C5125.682,2415.418 5129.507,2416.004 5130.102,2416.095C5132.121,2416.404 5134.165,2416.594 5136.207,2416.619C5136.849,2416.626 5142.259,2416.691 5144.041,2414.908C5145.823,2413.126 5145.759,2407.716 5145.751,2407.074C5145.679,2401.023 5144.074,2395.302 5143.795,2394.307C5141.188,2385.012 5141.289,2384.977 5137.853,2375.956C5132.012,2360.62 5126.048,2345.32 5119.479,2330.282C5116.245,2322.876 5112.702,2315.604 5108.981,2308.427C5118.138,2307.45 5127.284,2306.377 5136.41,2305.152C5154.907,2302.668 5173.318,2299.539 5191.672,2296.158C5208.25,2293.103 5224.789,2289.775 5241.183,2285.847C5266.008,2279.9 5290.671,2273.289 5315.291,2266.543C5324.413,2264.043 5333.358,2260.935 5342.388,2258.116C5343.397,2257.801 5349.148,2256.006 5353.811,2251.453C5358.142,2247.224 5358.142,2244.108 5358.142,2243.375C5358.142,2242.642 5358.142,2239.526 5353.811,2235.298C5353.114,2234.617 5349.481,2231.07 5343.4,2228.982C5329.468,2224.198 5329.497,2224.1 5315.291,2220.207C5290.671,2213.461 5266.008,2206.85 5241.183,2200.903C5224.789,2196.976 5208.25,2193.647 5191.672,2190.593C5173.318,2187.211 5154.907,2184.083 5136.41,2181.599C5127.284,2180.373 5118.138,2179.301 5108.981,2178.323C5112.702,2171.146 5116.245,2163.874 5119.479,2156.468C5126.048,2141.43 5132.012,2126.13 5137.853,2110.795C5140.057,2105.007 5141.696,2099.019 5143.603,2093.127C5144.55,2090.201 5145.136,2086.376 5145.227,2085.781C5145.536,2083.762 5145.727,2081.718 5145.751,2079.676C5145.759,2079.034 5145.823,2073.624 5144.041,2071.842C5142.259,2070.06 5136.849,2070.124 5136.207,2070.132C5130.155,2070.204 5124.435,2071.809 5123.44,2072.088C5114.145,2074.695 5114.11,2074.594 5105.088,2078.03C5089.753,2083.871 5074.453,2089.835 5059.415,2096.403C5052.787,2099.298 5046.266,2102.44 5039.824,2105.736C5038.181,2067.691 5036.396,2029.65 5034.247,1991.631C5031.615,1945.056 5028.484,1898.509 5025.215,1851.974C5023.97,1834.25 5022.693,1816.528 5021.376,1798.809C5179.118,1465.333 5508.767,1228.801 5895.637,1203.895C5903.033,1203.438 5909.786,1208.087 5911.998,1215.159C5914.21,1222.231 5911.31,1229.899 5904.972,1233.738C5615.39,1409.091 5389.072,1799.935 5389.072,2243.222C5389.072,2658.616 5587.805,3027.959 5851.101,3217.082C5817.734,3235.685 5787.322,3251.609 5760.689,3264.971Z" style="fill:white;"/>
            </g>
            <g id="ExpandedOrbits" transform="matrix(0.154692,-0.154692,0.178929,0.178929,-2425.303713,931.983576)">
                <path d="M10710.022,7717.075C10710.74,7717.704 10710.724,7718.131 10709.959,7718.717C10709.562,7719.021 10709.543,7719.673 10709.053,7719.846C10708.892,7719.903 10684.631,7719.376 10682.507,7719.33C10333.852,7711.759 9993.096,7672.603 9698.812,7601.374C9698.458,7601.289 9670.752,7594.522 9635.29,7584.916C9330.725,7502.418 9167.687,7406.057 9087.324,7350.708C9082.314,7347.258 9072.66,7340.126 9071.397,7339.193C8977.132,7269.558 8925.823,7204.775 8896.088,7156.206C8896.014,7156.085 8887.823,7142.371 8879.014,7123.908C8854.482,7072.492 8841.952,7020.484 8840.298,6968.827C8840.226,6966.582 8840.314,6966.586 8840.535,6964.35C8850.145,6866.865 8896.519,6793.754 8931.08,6749.352C8931.108,6749.315 8939.622,6739.115 8952.043,6725.995C9003.202,6671.96 9079.123,6611.359 9197.755,6549.286C9197.992,6549.162 9219.075,6538.247 9249.417,6524.103C9368.019,6468.815 9501.723,6422.545 9632.016,6384.074C9632.767,6383.852 9633.477,6383.362 9634.269,6383.41C9635.322,6383.473 9636.216,6384.125 9637.227,6384.387C9637.396,6384.43 9637.485,6384.539 9637.363,6384.704C9636.795,6385.473 9636.611,6386.471 9635.862,6387.114C9635.561,6387.372 9580.038,6405.847 9511.636,6435.681C9368.511,6498.106 9281.393,6560.67 9238.315,6594.416C9225.512,6604.445 9171.89,6644.63 9123.127,6701.635C9084.311,6747.012 9064.354,6784.424 9053.724,6808.28C9052.602,6810.797 9046.64,6821.765 9040.119,6838.153C9019.473,6890.04 9018.376,6933.492 9022.962,6966.394C9023.093,6967.331 9023.094,6967.329 9023.056,6968.275C9021.016,7018.784 9035.851,7061.184 9050.984,7092.137C9054.131,7098.574 9067.803,7131.709 9103.38,7176.458C9137.844,7219.806 9174.409,7250.976 9185.455,7260.806C9250.402,7318.606 9404.558,7436.584 9719.129,7542.555C9748.814,7552.555 9853.904,7589.121 10011.035,7625.222C10224.502,7674.266 10459.49,7705.655 10707.021,7715.808C10707.749,7715.837 10708.55,7715.62 10709.205,7715.896C10709.681,7716.097 10709.649,7716.749 10710.022,7717.075ZM11665.137,7649.111C11665.128,7649.107 11665.103,7649.088 11665.125,7649.063C11665.826,7648.277 11666.262,7647.259 11667.199,7646.685C11667.552,7646.469 11737.598,7633.132 11827.592,7609.382C12057.228,7548.779 12206.165,7476.699 12281.686,7436.268C12300.804,7426.033 12377.652,7386.443 12456.116,7327.421C12536.56,7266.909 12579.882,7215.414 12602.534,7184.676C12608.911,7176.023 12640.256,7137.111 12659.746,7084.851C12665.509,7069.397 12667.87,7059.236 12668.788,7056.318C12680.015,7020.623 12681.371,6990.561 12680.004,6968.275C12679.877,6966.205 12680.086,6966.207 12680.194,6959.815C12680.946,6915.707 12668.949,6878.953 12657.515,6852.897C12654.928,6847.002 12643.385,6814.504 12611.142,6770.317C12583.422,6732.328 12554.527,6704.965 12546.909,6697.339C12455.186,6605.526 12305.506,6509.079 12090.536,6425.079C12065.953,6415.473 11986.448,6383.357 11864.65,6347.923C11851.588,6331.983 11837.962,6316.284 11823.773,6300.846C11918.733,6318.815 12016.719,6340.89 12113.733,6368.058C12114.033,6368.142 12134.526,6373.966 12160.691,6381.99C12424.203,6462.81 12569.445,6552.108 12648.141,6610.869C12648.177,6610.895 12662.108,6621.444 12679.057,6635.793C12750.636,6696.392 12790.737,6751.701 12814.588,6793.355C12814.688,6793.529 12822.689,6807.959 12831.041,6827.371C12850.81,6873.314 12861.114,6919.699 12862.738,6965.842C12862.751,6966.224 12862.899,6966.225 12862.493,6973.301C12859.096,7032.492 12842.099,7078.156 12830.879,7104.148C12830.865,7104.178 12827.809,7110.693 12823.451,7119C12791.613,7179.7 12748.668,7226.967 12714.276,7259.683C12714.078,7259.871 12702.835,7270.342 12686.643,7283.792C12614.759,7343.504 12501.182,7416.532 12314.9,7487.544C12314.837,7487.568 12290.25,7496.849 12255.663,7508.661C12035.75,7583.761 11806.84,7627.392 11668.246,7650.535C11666.413,7650.841 11666.78,7649.875 11665.137,7649.111Z" style="fill:white;"/>
            </g>
            <g transform="matrix(0.24,0,0,0.24,-3215.309762,-3.761841)">
                <path d="M16493.207,2199.334L16226.541,2199.334L16226.541,2666.001L16493.207,2666.001" style="fill:none;stroke:white;stroke-width:75px;"/>
            </g>
            <g transform="matrix(1,0,0,1,775.02,580.078293)">
                <path d="M0,0L53.333,0" style="fill:none;fill-rule:nonzero;stroke:white;stroke-width:18px;stroke-linejoin:round;stroke-miterlimit:10;"/>
            </g>
            <g transform="matrix(0.24,0,0,0.24,-3215.309762,-3.761841)">
                <path d="M16893.041,2199.334L16626.374,2199.334L16626.374,2666.001L16893.041,2666.001" style="fill:none;stroke:white;stroke-width:75px;"/>
            </g>
            <g transform="matrix(0.191743,0,0,0.19984,-2445.931534,89.237538)">
                <path d="M15797.247,2736.393L15797.247,2726.009L15938.744,2456.169L16080.241,2175.945L16131.027,2175.945L16130.81,2736.393" style="fill:rgb(106,151,219);fill-opacity:0;stroke:white;stroke-width:91.91px;"/>
            </g>
            <g transform="matrix(0.24,0,0,0.24,-3164.409762,-3.761841)">
                <path d="M15426.874,2666.001L15426.707,2432.667L15578.377,2432.667C15578.377,2432.667 15693.541,2199.334 15693.541,2199.334L15426.874,2199.334" style="fill:none;stroke:white;stroke-width:75px;"/>
            </g>
            <g transform="matrix(0.2403,0,0,0.24,-3169.003516,-3.761841)">
                <path d="M15293.374,2199.334L15027.041,2199.334L15027.041,2432.667L15293.374,2432.667L15293.374,2666.001L15027.041,2666.001" style="fill:none;stroke:white;stroke-width:74.95px;"/>
            </g>
            <g transform="matrix(0,-1.142158,-1.142158,0,638.507881,359.578216)">
                <path d="M-10,10L10,10" style="fill:none;fill-rule:nonzero;stroke:white;stroke-width:17.51px;stroke-linejoin:round;stroke-miterlimit:10;"/>
            </g>
            <g transform="matrix(0.24,0,0,0.24,-3157.637153,-3.761841)">
                <path d="M15579.321,1466.327L15579.321,1999.334L15960.041,1999.334L15960.041,1466.327" style="fill:none;stroke:white;stroke-width:83.33px;"/>
            </g>
            <g transform="matrix(0.24,0,0,0.24,-3164.489762,-3.761841)">
                <path d="M15407.76,1466.327L15407.76,1999.334L15217.4,1853.477L15027.041,1999.334L15027.041,1466.327" style="fill:none;stroke:white;stroke-width:83.33px;"/>
            </g>
        </g>
    </g>
</svg>
