<?xml version="1.0" encoding="UTF-8" standalone="no"?>
<!DOCTYPE svg PUBLIC "-//W3C//DTD SVG 1.1//EN" "http://www.w3.org/Graphics/SVG/1.1/DTD/svg11.dtd">
<svg width="100%" height="100%" viewBox="0 0 4167 4167" version="1.1" xmlns="http://www.w3.org/2000/svg" xmlns:xlink="http://www.w3.org/1999/xlink" xml:space="preserve" xmlns:serif="http://www.serif.com/" style="fill-rule:evenodd;clip-rule:evenodd;stroke-linecap:square;stroke-linejoin:bevel;stroke-miterlimit:1.5;">
    <g transform="matrix(1,0,0,1,-4536.79535,0)">
        <g id="main" transform="matrix(4.166667,0,0,4.166667,4536.79535,0)">
            <rect x="0" y="0" width="1000" height="1000" style="fill:rgb(34,34,34);fill-opacity:0;"/>
            <g id="Symbols" transform="matrix(1,0,0,1,18.31141,0.078293)">
                <g id="Planet" transform="matrix(0.248047,0,0,0.248047,-997.482022,-56.462961)">
                    <path d="M5721.561,3256.448C5413.45,3183.058 5158.236,2972.607 5024.032,2693.208C5026.962,2656.381 5029.484,2619.52 5031.852,2582.653C5034.359,2543.635 5036.679,2504.602 5038.571,2465.55C5039.934,2437.421 5041.036,2409.28 5042.037,2381.136C5048.306,2384.332 5054.65,2387.381 5061.095,2390.196C5076.133,2396.765 5091.433,2402.729 5106.769,2408.57C5112.557,2410.774 5118.544,2412.412 5124.437,2414.32C5127.362,2415.267 5131.188,2415.853 5131.782,2415.944C5133.801,2416.253 5135.845,2416.444 5137.887,2416.468C5138.529,2416.476 5143.939,2416.54 5145.721,2414.758C5147.504,2412.976 5147.439,2407.565 5147.432,2406.924C5147.359,2400.872 5145.755,2395.152 5145.475,2394.157C5142.868,2384.862 5142.969,2384.826 5139.533,2375.805C5133.693,2360.47 5127.728,2345.17 5121.16,2330.132C5117.925,2322.726 5114.382,2315.454 5110.661,2308.277C5119.818,2307.299 5128.964,2306.226 5138.091,2305.001C5156.588,2302.517 5174.998,2299.389 5193.352,2296.007C5209.931,2292.952 5226.469,2289.624 5242.863,2285.697C5267.688,2279.75 5292.352,2273.139 5316.971,2266.393C5326.094,2263.893 5335.039,2260.784 5344.068,2257.966C5345.078,2257.651 5350.828,2255.855 5355.492,2251.302C5359.822,2247.074 5359.822,2243.958 5359.822,2243.225C5359.822,2242.491 5359.822,2239.375 5355.492,2235.147C5354.795,2234.467 5351.162,2230.919 5345.081,2228.831C5331.148,2224.047 5331.177,2223.949 5316.971,2220.057C5292.352,2213.311 5267.688,2206.699 5242.863,2200.752C5226.469,2196.825 5209.931,2193.497 5193.352,2190.442C5174.998,2187.061 5156.588,2183.932 5138.091,2181.448C5128.964,2180.223 5119.818,2179.15 5110.661,2178.173C5114.382,2170.996 5117.925,2163.723 5121.16,2156.318C5127.728,2141.279 5133.693,2125.98 5139.533,2110.644C5141.738,2104.856 5143.376,2098.868 5145.284,2092.976C5146.231,2090.051 5146.817,2086.225 5146.908,2085.63C5147.217,2083.611 5147.407,2081.568 5147.432,2079.525C5147.439,2078.884 5147.504,2073.474 5145.721,2071.691C5143.939,2069.909 5138.529,2069.974 5137.887,2069.981C5131.836,2070.053 5126.115,2071.658 5125.12,2071.937C5115.825,2074.545 5115.79,2074.444 5106.769,2077.88C5091.433,2083.72 5076.133,2089.685 5061.095,2096.253C5054.467,2099.148 5047.946,2102.29 5041.504,2105.586C5039.861,2067.54 5038.077,2029.5 5035.928,1991.48C5033.295,1944.905 5030.165,1898.358 5026.896,1851.823C5025.582,1833.123 5024.233,1814.425 5022.838,1795.731C5181.149,1463.879 5509.958,1228.724 5895.637,1203.895C5903.033,1203.438 5909.786,1208.087 5911.998,1215.159C5914.21,1222.231 5911.31,1229.899 5904.972,1233.738C5615.39,1409.091 5389.072,1799.935 5389.072,2243.222C5389.072,2646.289 5576.186,3005.999 5827.836,3199.774C5788.049,3222.357 5752.257,3241.14 5721.561,3256.448Z" style="fill:white;"/>
                </g>
                <g id="Star" transform="matrix(1.484472,0,0,1.484472,-160.893221,-242.235971)">
                    <g transform="matrix(0,-0.860762,-0.860762,0,374.887859,499.70195)">
                        <path d="M126.285,125C126.285,124.925 126.285,124.514 125.908,124.145C125.79,124.029 125.65,123.933 125.499,123.867C125.343,123.798 125.171,123.77 125.002,123.744C124.99,123.742 111.678,122.978 111.369,122.962C100.333,122.372 89.296,121.788 78.257,121.241C71.519,120.908 64.781,120.606 58.041,120.323C51.139,120.032 44.236,119.755 37.331,119.521C20.134,118.939 10.835,118.824 8.53,118.795C5.775,118.761 3.019,118.742 0.263,118.739C-2.396,118.736 -13.547,118.724 -32.969,119.286C-38.758,119.454 -44.547,119.66 -50.334,119.883C-56.072,120.103 -61.809,120.339 -67.544,120.616C-96.04,121.992 -96.037,122.053 -124.518,123.715C-124.678,123.724 -124.839,123.734 -125,123.744C-125.078,123.748 -125.518,123.775 -125.887,124.144C-125.964,124.22 -126.474,124.731 -126.157,125.465C-125.96,125.921 -125.557,126.103 -125.488,126.134C-125.336,126.203 -125.167,126.231 -125.002,126.256C-124.996,126.257 -99.69,127.733 -99.531,127.742C-88.871,128.322 -78.208,128.869 -67.544,129.384C-61.809,129.661 -56.072,129.897 -50.334,130.117C-44.547,130.34 -38.758,130.546 -32.969,130.714C-13.547,131.276 -2.396,131.264 0.263,131.261C1.649,131.259 9.464,131.25 17.586,131.046C24.168,130.88 30.751,130.702 37.331,130.479C44.236,130.245 51.139,129.968 58.041,129.677C64.781,129.394 71.519,129.092 78.257,128.759C107.427,127.315 121.262,126.482 125,126.256C125.53,126.224 125.851,125.911 125.908,125.855C126.285,125.486 126.285,125.075 126.285,125Z" style="fill:white;"/>
                    </g>
                    <g transform="matrix(0.860762,0,0,0.860762,159.697251,499.70195)">
                        <path d="M181.308,0C181.308,0.07 181.308,0.416 180.924,0.791C180.801,0.911 180.66,1.013 180.508,1.093C180.459,1.119 180.238,1.236 179.85,1.308C172.373,2.705 172.37,2.69 164.842,3.769C162.401,4.119 159.951,4.414 157.5,4.684C154.772,4.985 152.041,5.262 149.305,5.482C142.097,6.061 137.099,6.18 136.036,6.205C134.523,6.241 133.009,6.258 131.495,6.261C129.478,6.264 127.462,6.246 125.446,6.223C123.654,6.203 116.563,6.122 103.05,5.716C97.241,5.541 91.433,5.336 85.626,5.122C79.478,4.895 73.331,4.656 67.184,4.392C54.989,3.868 42.794,3.322 30.6,2.757L0,1.277C-0.079,1.273 -0.527,1.251 -0.902,0.876C-1.016,0.762 -1.113,0.625 -1.177,0.477C-1.207,0.406 -1.381,0 -1.177,-0.477C-0.976,-0.943 -0.566,-1.126 -0.496,-1.157C-0.341,-1.226 -0.17,-1.253 -0.002,-1.277C0.002,-1.278 30.436,-2.749 30.6,-2.757C42.794,-3.322 54.989,-3.868 67.184,-4.392C73.331,-4.656 79.478,-4.895 85.626,-5.122C91.433,-5.336 97.241,-5.541 103.05,-5.716C116.563,-6.122 123.654,-6.203 125.446,-6.223C127.462,-6.246 129.478,-6.264 131.495,-6.261C132.219,-6.26 136.778,-6.252 140.542,-6.047C143.465,-5.888 146.388,-5.717 149.305,-5.482C152.041,-5.262 154.772,-4.985 157.5,-4.684C159.951,-4.414 162.401,-4.119 164.842,-3.769C166.059,-3.595 174.87,-2.332 180,-1.277C180.54,-1.166 180.864,-0.85 180.924,-0.791C181.308,-0.416 181.308,-0.07 181.308,0Z" style="fill:white;"/>
                    </g>
                    <g transform="matrix(0.608651,-0.608651,-0.608651,-0.608651,254.381205,559.955389)">
                        <path d="M95.199,38.891C95.199,38.7 95.186,38.7 95.096,38.531C95.024,38.397 94.936,38.263 94.815,38.17C94.208,37.708 93.889,37.61 93.799,37.583C89.257,36.194 89.252,36.207 84.628,35.122C83.142,34.773 81.643,34.478 80.141,34.207C78.478,33.907 76.809,33.629 75.133,33.409C70.728,32.83 67.675,32.711 67.024,32.686C66.1,32.65 65.174,32.633 64.249,32.63C63.017,32.627 61.784,32.645 60.552,32.668C59.457,32.688 55.124,32.769 46.866,33.175C43.315,33.35 39.766,33.555 36.218,33.769C32.46,33.996 28.703,34.235 24.948,34.499C4.57,35.932 4.574,35.977 -15.791,37.588L-16.109,37.614C-16.188,37.62 -16.636,37.656 -17.011,38.031C-17.088,38.108 -17.605,38.625 -17.286,39.355C-17.085,39.813 -16.675,40.003 -16.605,40.036C-16.45,40.107 -16.278,40.136 -16.111,40.168C-16.108,40.169 2.49,41.64 2.591,41.648C10.042,42.213 17.494,42.759 24.948,43.283C28.703,43.547 32.46,43.786 36.218,44.013C39.766,44.227 43.315,44.432 46.866,44.607C55.124,45.013 59.457,45.094 60.552,45.114C61.784,45.137 63.017,45.155 64.249,45.152C64.692,45.151 67.477,45.143 69.778,44.938C71.566,44.778 73.354,44.607 75.133,44.373C76.809,44.153 78.478,43.875 80.141,43.575C81.643,43.304 83.142,43.009 84.628,42.66C85.375,42.485 90.756,41.223 93.891,40.168C93.973,40.141 94.237,40.052 94.815,39.612C94.936,39.519 95.024,39.385 95.096,39.251C95.186,39.082 95.199,39.082 95.199,38.891Z" style="fill:white;"/>
                    </g>
                    <g transform="matrix(0.608651,0.608651,0.608651,-0.608651,254.381205,439.448511)">
                        <path d="M95.199,-38.891C95.199,-39.082 95.186,-39.082 95.096,-39.251C95.024,-39.385 94.936,-39.519 94.815,-39.612C94.208,-40.074 93.889,-40.172 93.799,-40.199C89.257,-41.588 89.252,-41.575 84.628,-42.66C83.142,-43.009 81.643,-43.304 80.141,-43.575C78.478,-43.875 76.809,-44.153 75.133,-44.373C70.728,-44.952 67.675,-45.071 67.024,-45.096C66.1,-45.132 65.174,-45.149 64.249,-45.152C63.017,-45.155 61.784,-45.137 60.552,-45.114C59.457,-45.094 55.124,-45.013 46.866,-44.607C43.315,-44.432 39.766,-44.227 36.218,-44.013C32.46,-43.786 28.703,-43.547 24.948,-43.283C4.57,-41.85 4.574,-41.805 -15.791,-40.194L-16.109,-40.168C-16.188,-40.162 -16.636,-40.126 -17.011,-39.751C-17.088,-39.674 -17.605,-39.157 -17.286,-38.427C-17.085,-37.969 -16.675,-37.779 -16.605,-37.746C-16.45,-37.675 -16.278,-37.646 -16.111,-37.614C-16.108,-37.613 2.49,-36.142 2.591,-36.134C10.042,-35.569 17.494,-35.023 24.948,-34.499C28.703,-34.235 32.46,-33.996 36.218,-33.769C39.766,-33.555 43.315,-33.35 46.866,-33.175C55.124,-32.769 59.457,-32.688 60.552,-32.668C61.784,-32.645 63.017,-32.627 64.249,-32.63C64.692,-32.631 67.477,-32.639 69.778,-32.844C71.566,-33.004 73.354,-33.175 75.133,-33.409C76.809,-33.629 78.478,-33.907 80.141,-34.207C81.643,-34.478 83.142,-34.773 84.628,-35.122C85.375,-35.297 90.756,-36.559 93.891,-37.614C93.973,-37.641 94.237,-37.73 94.815,-38.17C94.936,-38.263 95.024,-38.397 95.096,-38.531C95.186,-38.7 95.199,-38.7 95.199,-38.891Z" style="fill:white;"/>
                    </g>
                    <g transform="matrix(0.795242,-0.329397,-0.329397,-0.795242,232.195163,523.153195)">
                        <path d="M49.405,9.565C48.727,8.909 48.838,8.785 48.055,8.259C46.044,6.906 46.04,6.909 43.886,5.798C43.224,5.456 42.54,5.158 41.847,4.883C41.1,4.586 40.343,4.308 39.571,4.085C37.568,3.506 36.184,3.388 35.885,3.362C35.465,3.326 35.044,3.309 34.623,3.306C34.063,3.303 33.503,3.321 32.943,3.344C32.444,3.364 30.476,3.445 26.722,3.851C25.106,4.026 23.493,4.231 21.882,4.445C20.172,4.672 18.464,4.911 16.759,5.175C7.482,6.611 7.49,6.654 -1.758,8.264C-2.091,8.322 -2.099,8.304 -2.399,8.46C-2.467,8.496 -2.879,8.71 -3.079,9.141C-3.081,9.144 -3.181,9.567 -3.18,9.569C-3.076,10.014 -3.128,10.053 -2.805,10.376C-2.686,10.495 -2.548,10.596 -2.399,10.674C-2.099,10.83 -2.091,10.812 -1.758,10.87C7.49,12.48 7.482,12.523 16.759,13.959C18.464,14.223 20.172,14.462 21.882,14.689C23.493,14.903 25.106,15.108 26.722,15.283C30.476,15.689 32.444,15.77 32.943,15.79C33.503,15.813 34.063,15.831 34.623,15.828C34.825,15.827 36.091,15.819 37.136,15.614C37.954,15.453 38.771,15.281 39.571,15.049C40.343,14.826 41.1,14.548 41.847,14.251C42.54,13.976 43.224,13.678 43.886,13.336C46.04,12.225 46.044,12.228 48.055,10.875C48.839,10.348 48.727,10.223 49.405,9.565Z" style="fill:white;"/>
                    </g>
                    <g transform="matrix(0.329397,-0.795242,-0.795242,-0.329397,274.273831,534.799138)">
                        <path d="M35.875,23.099C35.197,22.441 35.309,22.316 34.525,21.789C32.514,20.436 32.51,20.439 30.356,19.328C29.694,18.986 29.01,18.688 28.317,18.413C27.57,18.116 26.813,17.838 26.041,17.615C24.038,17.036 22.654,16.918 22.355,16.892C21.935,16.856 21.514,16.839 21.093,16.836C20.533,16.833 19.973,16.851 19.413,16.874C18.914,16.894 16.946,16.975 13.192,17.381C11.576,17.556 9.963,17.761 8.352,17.975C6.642,18.202 4.934,18.441 3.229,18.705C-6.048,20.141 -6.04,20.184 -15.288,21.794C-15.621,21.852 -15.629,21.834 -15.929,21.99C-15.997,22.026 -16.409,22.24 -16.609,22.671C-16.611,22.674 -16.711,23.097 -16.71,23.099C-16.606,23.544 -16.658,23.583 -16.335,23.906C-16.216,24.025 -16.078,24.126 -15.929,24.204C-15.629,24.36 -15.621,24.342 -15.288,24.4C-6.04,26.01 -6.048,26.053 3.229,27.489C4.934,27.753 6.642,27.992 8.352,28.219C9.963,28.433 11.576,28.638 13.192,28.813C16.946,29.219 18.914,29.3 19.413,29.32C19.973,29.343 20.533,29.361 21.093,29.358C21.295,29.357 22.561,29.349 23.606,29.144C24.424,28.983 25.241,28.811 26.041,28.579C26.813,28.356 27.57,28.078 28.317,27.781C29.01,27.506 29.694,27.208 30.356,26.866C32.51,25.755 32.514,25.758 34.525,24.405C34.65,24.321 34.632,24.302 35.875,23.099Z" style="fill:white;"/>
                    </g>
                    <g transform="matrix(0.329397,0.795242,0.795242,-0.329397,274.273831,464.604761)">
                        <path d="M35.875,-23.099C35.197,-23.755 35.308,-23.879 34.525,-24.405C32.514,-25.758 32.51,-25.755 30.356,-26.866C29.694,-27.208 29.01,-27.506 28.317,-27.781C27.57,-28.078 26.813,-28.356 26.041,-28.579C24.038,-29.158 22.654,-29.276 22.355,-29.302C21.935,-29.338 21.514,-29.355 21.093,-29.358C20.533,-29.361 19.973,-29.343 19.413,-29.32C18.914,-29.3 16.946,-29.219 13.192,-28.813C11.576,-28.638 9.963,-28.433 8.352,-28.219C6.642,-27.992 4.934,-27.753 3.229,-27.489C-6.048,-26.053 -6.04,-26.01 -15.288,-24.4C-15.621,-24.342 -15.629,-24.36 -15.929,-24.204C-15.997,-24.168 -16.409,-23.954 -16.609,-23.523C-16.611,-23.52 -16.711,-23.097 -16.71,-23.095C-16.606,-22.65 -16.658,-22.611 -16.335,-22.288C-16.216,-22.169 -16.078,-22.068 -15.929,-21.99C-15.629,-21.834 -15.621,-21.852 -15.288,-21.794C-6.04,-20.184 -6.048,-20.141 3.229,-18.705C4.934,-18.441 6.642,-18.202 8.352,-17.975C9.963,-17.761 11.576,-17.556 13.192,-17.381C16.946,-16.975 18.914,-16.894 19.413,-16.874C19.973,-16.851 20.533,-16.833 21.093,-16.836C21.295,-16.837 22.561,-16.845 23.606,-17.05C24.424,-17.211 25.241,-17.383 26.041,-17.615C26.813,-17.838 27.57,-18.116 28.317,-18.413C29.01,-18.688 29.694,-18.986 30.356,-19.328C32.51,-20.439 32.514,-20.436 34.525,-21.789C34.65,-21.873 34.632,-21.893 35.875,-23.099Z" style="fill:white;"/>
                    </g>
                    <g transform="matrix(0.795242,0.329397,0.329397,-0.795242,232.195163,476.250705)">
                        <path d="M49.405,-9.565C48.727,-10.223 48.839,-10.348 48.055,-10.875C46.044,-12.228 46.04,-12.225 43.886,-13.336C43.224,-13.678 42.54,-13.976 41.847,-14.251C41.1,-14.548 40.343,-14.826 39.571,-15.049C37.568,-15.628 36.184,-15.746 35.885,-15.772C35.465,-15.808 35.044,-15.825 34.623,-15.828C34.063,-15.831 33.503,-15.813 32.943,-15.79C32.444,-15.77 30.476,-15.689 26.722,-15.283C25.106,-15.108 23.493,-14.903 21.882,-14.689C20.172,-14.462 18.464,-14.223 16.759,-13.959C7.482,-12.523 7.49,-12.48 -1.758,-10.87C-2.091,-10.812 -2.099,-10.83 -2.399,-10.674C-2.467,-10.638 -2.879,-10.424 -3.079,-9.993C-3.081,-9.99 -3.181,-9.567 -3.18,-9.565C-3.076,-9.12 -3.128,-9.081 -2.805,-8.758C-2.686,-8.639 -2.548,-8.538 -2.399,-8.46C-2.099,-8.304 -2.091,-8.322 -1.758,-8.264C7.49,-6.654 7.482,-6.611 16.759,-5.175C18.464,-4.911 20.172,-4.672 21.882,-4.445C23.493,-4.231 25.106,-4.026 26.722,-3.851C30.476,-3.445 32.444,-3.364 32.943,-3.344C33.503,-3.321 34.063,-3.303 34.623,-3.306C34.825,-3.307 36.091,-3.315 37.136,-3.52C37.954,-3.681 38.771,-3.853 39.571,-4.085C40.343,-4.308 41.1,-4.586 41.847,-4.883C42.54,-5.158 43.224,-5.456 43.886,-5.798C46.04,-6.909 46.044,-6.906 48.055,-8.259C48.18,-8.343 48.162,-8.362 49.405,-9.565Z" style="fill:white;"/>
                    </g>
                </g>
                <g id="ExpandedOrbits" transform="matrix(0.154692,-0.154692,0.178929,0.178929,-2450.648706,931.774869)">
                    <path d="M10679.581,7716.845C10692.507,7717.33 10456.866,7708.604 10271.718,7689.35C10000.813,7661.177 9808.228,7620.16 9699.164,7593.763C9675.433,7588.02 9647.294,7580.54 9642.799,7579.345C9340.727,7499.05 9175.971,7405.993 9091.455,7349.183C9091.142,7348.972 9071.853,7335.858 9048.734,7317.837C8963.072,7251.061 8919.83,7191.866 8897.133,7155.782C8895.906,7153.832 8892.236,7147.24 8891.82,7146.494C8859.046,7087.641 8842.551,7027.932 8840.306,6968.827C8840.221,6966.584 8840.301,6966.587 8840.482,6964.35C8843.624,6925.45 8852.403,6893.805 8860.068,6871.636C8860.379,6870.736 8860.93,6869.141 8864.778,6860.631C8887.126,6811.207 8915.833,6774.027 8932.82,6753.551C8932.827,6753.542 8937.288,6748.439 8943.289,6741.982C9048.355,6628.937 9216.885,6535.565 9445.991,6449.973C9522.821,6421.271 9607.779,6393.342 9659.741,6377.451L9661.286,6376.978C9644.749,6382.116 9624.992,6388.735 9621.837,6389.792C9559.348,6410.73 9345.332,6484.434 9185.783,6627.06C9112.39,6692.669 9070.454,6755.377 9048.995,6808.563C9045.635,6816.892 9027.794,6853.702 9024.557,6902.531C9024.37,6905.351 9024.167,6905.332 9023.424,6911.252C9019.475,6942.726 9023.036,6965.382 9023.096,6967.334C9023.158,6969.365 9020.918,6992.677 9027.089,7024.714C9034.227,7061.771 9048.354,7088.872 9050.82,7094.516C9083.638,7169.621 9144.17,7228.979 9180.545,7261.312C9188.704,7268.564 9226.747,7304.639 9295.489,7350.62C9446.793,7451.829 9618.983,7516.428 9714.139,7548.813C9758.31,7563.846 9886.401,7607.814 10077.152,7646.696C10346.287,7701.555 10574.92,7712.925 10679.581,7716.845ZM11833.485,6304.111C11903.52,6317.532 11959.693,6330.204 12001.531,6340.236C12019.989,6344.662 12044.902,6351.159 12048.662,6352.14C12350.991,6430.988 12516.803,6522.518 12601.656,6577.885C12601.904,6578.047 12620.878,6590.625 12643.734,6607.886C12730.354,6673.296 12775.829,6731.853 12800.667,6769.546C12800.675,6769.558 12806.378,6778.655 12812.977,6790.737C12844.659,6848.742 12860.621,6907.573 12862.736,6965.842C12862.754,6966.335 12862.9,6966.338 12862.448,6973.3C12858.546,7033.424 12840.689,7079.803 12828.659,7106.596C12828.658,7106.599 12824.341,7115.312 12817.886,7126.576C12797.199,7162.667 12764.781,7207.662 12712.347,7256.422C12712.111,7256.641 12693.773,7273.39 12665.79,7294.665C12591.798,7350.92 12484.89,7413.2 12326.385,7474.308C12288.538,7488.899 12248.157,7502.637 12241.295,7504.972C12103.952,7551.697 11958.305,7588.888 11815.662,7619.3C11816.57,7618.305 11817.476,7617.309 11818.38,7616.312C11938.52,7586.895 12124.016,7531.939 12298.532,7436.793C12346.594,7410.59 12509.49,7321.219 12603.404,7190.081C12605.701,7186.873 12605.664,7186.858 12608.009,7183.672C12639.941,7140.287 12659.167,7099.053 12668.633,7060.484C12669.197,7058.185 12671.675,7051.081 12674.39,7039.285C12680.28,7013.689 12681.603,6989.97 12680.015,6968.275C12679.871,6966.311 12680.061,6966.313 12680.188,6960.754C12681.244,6914.49 12668.342,6872.424 12649.452,6835.457C12645.773,6828.256 12630.249,6791.091 12587.992,6740.931C12554.379,6701.031 12520.493,6672.602 12511.607,6664.697C12403.291,6568.334 12230.59,6468.132 11986.616,6385.176C11966.761,6378.425 11926.892,6364.695 11869.641,6347.923C11858.061,6333.119 11846.008,6318.51 11833.485,6304.111Z" style="fill:white;"/>
                </g>
            </g>
            <g id="Text" transform="matrix(1,0,0,1,-55.023629,0.078293)">
                <g transform="matrix(0.24,0,0,0.24,-3160.286133,-3.840134)">
                    <path d="M16493.207,2199.334L16226.541,2199.334L16226.541,2666.001L16493.207,2666.001" style="fill:none;stroke:white;stroke-width:83.33px;"/>
                </g>
                <g transform="matrix(1,0,0,1,830.043629,580)">
                    <path d="M0,0L53.333,0" style="fill:none;fill-rule:nonzero;stroke:white;stroke-width:20px;stroke-linejoin:round;stroke-miterlimit:10;"/>
                </g>
                <g transform="matrix(0.24,0,0,0.24,-3160.286133,-3.840134)">
                    <path d="M16893.041,2199.334L16626.374,2199.334L16626.374,2666.001L16893.041,2666.001" style="fill:none;stroke:white;stroke-width:83.33px;"/>
                </g>
                <g transform="matrix(0.191743,0,0,0.19984,-2390.907905,89.159245)">
                    <path d="M15797.247,2736.393C15797.247,2736.393 16080.241,2175.945 16080.241,2175.945L16131.027,2175.945L16130.81,2736.393" style="fill:rgb(106,151,219);fill-opacity:0;stroke:white;stroke-width:102.13px;"/>
                </g>
                <g transform="matrix(0.24,0,0,0.24,-3109.386133,-3.840134)">
                    <path d="M15426.874,2666.001L15426.874,2432.667L15580.386,2432.667C15580.386,2432.667 15693.541,2199.334 15693.541,2199.334L15426.874,2199.334" style="fill:none;stroke:white;stroke-width:83.33px;"/>
                </g>
                <g transform="matrix(0.2403,0,0,0.24,-3113.979887,-3.840134)">
                    <path d="M15293.374,2199.334L15027.041,2199.334L15027.041,2432.667L15293.374,2432.667L15293.374,2666.001L15027.041,2666.001" style="fill:none;stroke:white;stroke-width:83.28px;"/>
                </g>
                <g transform="matrix(0,-1.142158,-1.142158,0,687.53151,359.499923)">
                    <path d="M-10,10L10,10" style="fill:none;fill-rule:nonzero;stroke:white;stroke-width:19.26px;stroke-linejoin:round;stroke-miterlimit:10;"/>
                </g>
                <g transform="matrix(0.24,0,0,0.24,-3108.613524,-3.840134)">
                    <path d="M15579.321,1466.327L15579.321,1999.334L15960.041,1999.334L15960.041,1466.327" style="fill:none;stroke:white;stroke-width:91.67px;"/>
                </g>
                <g transform="matrix(0.24,0,0,0.24,-3109.466133,-3.840134)">
                    <path d="M15407.76,1466.327L15407.76,1999.334L15217.4,1853.477L15027.041,1999.334L15027.041,1466.327" style="fill:none;stroke:white;stroke-width:91.67px;"/>
                </g>
            </g>
        </g>
    </g>
</svg>
